<?xml version="1.0" standalone="no"?>
<!DOCTYPE svg PUBLIC "-//W3C//DTD SVG 20010904//EN"
 "http://www.w3.org/TR/2001/REC-SVG-20010904/DTD/svg10.dtd">
<svg version="1.0" xmlns="http://www.w3.org/2000/svg"
 width="512.000000pt" height="512.000000pt" viewBox="0 0 512.000000 512.000000"
 preserveAspectRatio="xMidYMid meet">
<metadata>
Created by potrace 1.11, written by Peter Selinger 2001-2013
</metadata>
<g transform="translate(0.000000,512.000000) scale(0.100000,-0.100000)"
fill="#000000" stroke="none">
<path d="M1930 4900 c-278 -59 -500 -231 -627 -485 -30 -59 -60 -141 -68 -187
-3 -12 -8 -34 -12 -48 -4 -14 -9 -522 -10 -1128 -3 -1040 -5 -1104 -21 -1097
-9 4 -26 8 -37 11 -11 2 -42 9 -70 16 -57 14 -255 17 -330 5 -27 -5 -83 -19
-123 -33 -360 -120 -603 -440 -618 -812 -5 -125 8 -218 48 -335 94 -283 332
-502 628 -579 121 -31 320 -31 440 0 334 87 587 352 660 690 17 83 18 162 19
1613 1 1707 -4 1589 73 1680 23 28 63 59 96 76 72 36 180 39 254 6 65 -30 132
-101 157 -169 21 -54 21 -64 21 -1583 0 -1277 2 -1541 14 -1603 64 -332 294
-594 610 -694 107 -34 148 -39 291 -38 191 1 350 52 504 161 189 134 311 324
368 573 3 14 7 178 9 365 9 782 7 725 30 776 28 60 93 125 153 153 41 19 68
22 271 26 256 6 283 13 360 90 151 151 99 405 -100 488 -50 21 -64 22 -299 18
-135 -2 -259 -6 -276 -10 -16 -5 -34 -9 -40 -10 -270 -59 -515 -268 -625 -533
-65 -155 -69 -202 -70 -743 0 -267 -3 -498 -6 -515 -15 -85 -83 -173 -166
-216 -62 -32 -184 -32 -250 0 -85 41 -148 120 -169 211 -5 19 -9 717 -9 1550
0 1435 -1 1520 -19 1605 -54 265 -226 496 -458 618 -75 39 -140 65 -183 73
-14 3 -43 10 -65 16 -69 19 -260 18 -355 -2z m-898 -3527 c109 -49 178 -162
174 -283 -3 -82 -30 -145 -89 -202 -62 -62 -127 -87 -215 -84 -266 9 -388 325
-197 510 85 83 220 107 327 59z"/>
</g>
</svg>
