<svg version="1" xmlns="http://www.w3.org/2000/svg" width="682.667" height="682.667" viewBox="0 0 512.000000 512.000000"><path d="M159.5 91.7c-3 .5-9.7 2.6-12.1 3.8-6 3-12.5 10.7-15 17.7-3.4 9.7-3.5 9.3 24.3 111.8 2.4 9.1 4.6 17.2 4.8 18 .5 2.2 11.3 42.9 12.5 47 1.6 5.8 5.7 20.7 9 33.5 1.7 6.6 3.7 14.2 4.5 17 .9 2.7 6.4 23.6 12.5 46.2 6 22.7 11.9 43.1 13 45.3 2.9 5.8 9.9 12.3 15.6 14.6 7.7 3.2 18 3.2 25.2-.1 10-4.5 16.2-12.2 18.6-23 1.5-6.6.8-10.8-6.3-37-7.6-28.1-12.2-45.5-12.6-47.8-.2-.9-.6-2.1-.9-2.5-.3-.5-.7-2-.9-3.3-.3-1.4-1.8-7.5-3.5-13.5-2.9-10.5-4.3-15.8-4.7-17.9-.2-.6-3.4-12.7-7.3-27-8.1-29.7-10.4-38.4-13.7-51-4.4-16.7-9.6-35.9-14.6-54.5-2.7-10.2-6.4-23.7-8.1-30-5.5-20.8-7.6-27.7-9.2-30.9-2.3-4.3-9.2-10.7-14.3-13.2-4.3-2.1-13.1-3.7-16.8-3.2zM275.3 118.4c-15.8 5.2-24.9 22.1-20.8 38.9.6 2.8 2.4 9.5 3.8 14.7 1.4 5.2 5.1 18.7 8.1 30s6.4 24.1 7.6 28.5c2.7 9.9 5.3 19.7 7.9 29.5 1.1 4.1 4 15.1 6.6 24.5 2.6 9.3 4.8 17.7 5 18.5 2 9.8 11.3 41.7 13.2 45.7 4.9 10.2 14.2 16.2 26.2 17 6.3.4 8.6.1 13.5-1.7 10.8-4.1 19-14.9 20.2-26.8.5-4.9-.2-8.7-5.1-27.2-3.1-11.8-6.5-24.7-7.5-28.5-1-3.9-6.9-25.7-13-48.5-6.2-22.8-11.3-42.2-11.6-43-.2-.8-1.3-4.9-2.4-9-1.2-4.1-3.2-11.8-4.5-17-7.1-27.6-9.2-32.6-15.5-38.4-6.3-5.7-11.4-7.8-19.9-8.2-4.8-.3-9.2.1-11.8 1zM409.7 149.5c-.1.2-2.3.5-4.9.8-13.5 1.6-25.3 14.4-26.5 28.7-.5 5.6.6 10.7 9.2 42.5 2 7.1 3.8 13.8 4 14.9.2 1 1.2 4.4 2.1 7.5.9 3.1 1.8 6.4 1.9 7.3 1.8 9.1 10.9 18.9 20.7 22.4 20.8 7.4 43.6-9.8 42.2-31.9-.2-2.7-2.3-12.1-4.8-21-2.4-8.9-6.5-24.1-9.1-33.7-2.6-9.6-5.7-19.4-7-21.6-4.1-7.1-12.4-13.1-20.5-14.9-3.8-.9-6.9-1.3-7.3-1zM55.2 178.2c-10.5 5-17.1 14.6-18 26.3-.3 5.3.7 10.2 8.3 38.5 4.8 17.9 9.5 35.6 10.6 39.5 3.4 13.3 11.6 43.8 20 75 2.7 9.9 5.8 21.6 7 26 4.6 17.1 6.2 22 8.5 25.6 6 9.6 15.6 14.9 26.9 14.8 12.2 0 23-6.6 28.4-17.4 4.5-9 4.6-15.2.6-30.5-1-3.8-6.9-25.5-12.4-46-3.4-12.4-7.9-29.5-10.2-38-2.3-8.5-5.9-21.8-7.9-29.5-2.1-7.7-6.1-22.8-9-33.5-10-37.8-10.3-38.7-17.8-45.7-9.3-8.7-23.3-10.8-35-5.1z"/></svg>