<svg viewBox="0 0 359 359" class="cd" fill="none" xmlns="http://www.w3.org/2000/svg">
  <circle cx="179" cy="179" r="160.5" stroke="white" stroke-width="25"/>
  <path d="M270.481 87.6812C262.315 79.5155 253 72.5788 242.806 67.0724L211.346 122.37C216.507 125.158 221.223 128.67 225.358 132.804L270.481 87.6812Z" fill="white"/>
  <path d="M87.6812 270.481C95.847 278.646 105.162 285.583 115.356 291.089L146.816 235.792C141.655 233.004 136.939 229.492 132.804 225.358L87.6812 270.481Z" fill="white"/>
  <mask id="path-4-inside-1" fill="white">
    <path d="M149.345 208.035C133.138 191.828 133.138 165.552 149.345 149.345C165.552 133.138 191.828 133.138 208.035 149.345C224.242 165.552 224.242 191.828 208.035 208.035C191.828 224.242 165.552 224.242 149.345 208.035ZM188.581 168.799C183.118 163.336 174.262 163.336 168.799 168.799C163.336 174.262 163.336 183.118 168.799 188.581C174.262 194.043 183.118 194.043 188.581 188.581C194.043 183.118 194.043 174.262 188.581 168.799Z"/>
  </mask>
  <path d="M149.345 208.035C133.138 191.828 133.138 165.552 149.345 149.345C165.552 133.138 191.828 133.138 208.035 149.345C224.242 165.552 224.242 191.828 208.035 208.035C191.828 224.242 165.552 224.242 149.345 208.035ZM188.581 168.799C183.118 163.336 174.262 163.336 168.799 168.799C163.336 174.262 163.336 183.118 168.799 188.581C174.262 194.043 183.118 194.043 188.581 188.581C194.043 183.118 194.043 174.262 188.581 168.799Z" stroke="white" stroke-width="50" mask="url(#path-4-inside-1)"/>
</svg>
