<svg class="svg-close" xmlns="http://www.w3.org/2000/svg" viewBox="0 0 24 24">
  <path d="M16.2426407,12 L20.4852814,16.2426407 C21.6568542,17.4142136 21.6568542,19.3137085 20.4852814,20.4852814 C19.3137085,21.6568542 17.4142136,21.6568542 16.2426407,20.4852814 L12,16.2426407 L7.75735931,20.4852814 C6.58578644,21.6568542 4.6862915,21.6568542 3.51471863,20.4852814 C2.34314575,19.3137085 2.34314575,17.4142136 3.51471863,16.2426407 L7.75735931,12 L3.51471863,7.75735931 C2.34314575,6.58578644 2.34314575,4.6862915 3.51471863,3.51471863 C4.6862915,2.34314575 6.58578644,2.34314575 7.75735931,3.51471863 L12,7.75735931 L16.2426407,3.51471863 C17.4142136,2.34314575 19.3137085,2.34314575 20.4852814,3.51471863 C21.6568542,4.6862915 21.6568542,6.58578644 20.4852814,7.75735931 L16.2426407,12 Z"/>
</svg>
