<svg class="svg-hamburger" xmlns="http://www.w3.org/2000/svg" viewBox="0 0 24 24">
  <path d="M24 4C24 5.1045695 22.9254834 6 21.6 6L2.4 6C1.0745166 6 0 5.1045695 0 4 0 2.8954305 1.0745166 2 2.4 2L21.6 2C22.9254834 2 24 2.8954305 24 4zM24 12C24 13.1045695 22.9254834 14 21.6 14L2.4 14C1.0745166 14 0 13.1045695 0 12 0 10.8954305 1.0745166 10 2.4 10L21.6 10C22.9254834 10 24 10.8954305 24 12zM24 20C24 21.1045695 22.9254834 22 21.6 22L2.4 22C1.0745166 22 0 21.1045695 0 20 0 18.8954305 1.0745166 18 2.4 18L21.6 18C22.9254834 18 24 18.8954305 24 20z"/>
</svg>
