<svg xmlns="http://www.w3.org/2000/svg" viewBox="0 0 24 24">
  <path d="M7,11 L8.15200606,11 C8.62034018,11 9,11.3877563 9,11.8660779 C9,12.0254403 8.95694829,12.1817131 8.87558388,12.3176942 L5.72363862,17.5854142 C5.47942579,17.9935574 4.95749535,18.1222272 4.55787436,17.8728064 C4.4430849,17.8011614 4.3466321,17.7026516 4.27648298,17.5854142 L1.12453772,12.3176942 C0.880324893,11.9095511 1.0063081,11.3764902 1.4059291,11.1270694 C1.53907086,11.0439698 1.69208063,11 1.84811554,11 L3,11 C3,5.4771525 7.4771525,1 13,1 C18.5228475,1 23,5.4771525 23,11 C23,16.5228475 18.5228475,21 13,21 C12.4477153,21 12,20.5522847 12,20 L12,18 C12,17.4477153 12.4477153,17 13,17 C16.3137085,17 19,14.3137085 19,11 C19,7.6862915 16.3137085,5 13,5 C9.6862915,5 7,7.6862915 7,11 Z" transform="rotate(90 12 11)"/>
</svg>
