<svg xmlns="http://www.w3.org/2000/svg" viewBox="0 0 350 347">
  <path d="M219.802 0.319809C219.802 25.1726 199.654 45.3198 174.802 45.3198C149.949 45.3198 129.802 25.1726 129.802 0.319809C129.802 0.226967 129.802 0.13419 129.802 0.041481C114.412 4.0321 99.826 10.018 86.336 17.7065C92.2683 25.3297 95.8015 34.9122 95.8015 45.3198C95.8015 70.1726 75.6544 90.3198 50.8015 90.3198C39.8829 90.3198 29.8725 86.4311 22.0797 79.9632C13.9486 93.232 7.49737 107.642 3.02188 122.896C24.4422 126.351 40.8015 144.925 40.8015 167.32C40.8015 190.757 22.8843 210.009 0 212.127C3.76714 229.215 9.97508 245.387 18.2396 260.26C26.4346 251.671 37.9931 246.32 50.8015 246.32C75.6544 246.32 95.8015 266.467 95.8015 291.32C95.8015 304.949 89.7429 317.162 80.1721 325.414C95.3451 334.888 112.039 342.152 129.804 346.758C129.802 346.612 129.802 346.466 129.802 346.32C129.802 321.467 149.949 301.32 174.802 301.32C199.654 301.32 219.802 321.467 219.802 346.32C219.802 346.48 219.801 346.64 219.799 346.8C237.587 342.205 254.304 334.946 269.498 325.472C259.889 317.219 253.802 304.98 253.802 291.32C253.802 266.467 273.949 246.32 298.802 246.32C311.663 246.32 323.264 251.715 331.464 260.366C339.756 245.469 345.984 229.265 349.76 212.141C326.801 210.097 308.802 190.81 308.802 167.32C308.802 144.872 325.239 126.262 346.734 122.872C342.249 107.592 335.782 93.1611 327.629 79.875C319.821 86.3958 309.77 90.3198 298.802 90.3198C273.949 90.3198 253.802 70.1726 253.802 45.3198C253.802 34.8834 257.354 25.2768 263.316 17.6434C249.81 9.95856 235.207 3.97968 219.8 0L219.801 0.099472C219.801 0.172874 219.802 0.246323 219.802 0.319809ZM85.3416 173.4C85.3416 222.851 125.43 262.94 174.882 262.94C224.333 262.94 264.422 222.851 264.422 173.4C264.422 123.948 224.333 83.8598 174.882 83.8598C125.43 83.8598 85.3416 123.948 85.3416 173.4Z"/>
</svg>
