<svg xmlns="http://www.w3.org/2000/svg" viewBox="0 0 24 24">
  <path d="M1.95221953,12.9543697 C1.43094776,12.2023421 1.5052706,11.1623695 2.17518805,10.4924521 L8.54219836,4.12544179 C9.29571322,3.37192693 10.5174022,3.37192693 11.2709171,4.12544179 C12.0244319,4.87895666 12.0244319,6.10064563 11.2709171,6.8541605 L6.20705095,11.9180266 L11.4348639,17.1458395 C12.1883787,17.8993544 12.1883787,19.1210433 11.4348639,19.8745582 C10.681349,20.6280731 9.45966001,20.6280731 8.70614515,19.8745582 L2.33913485,13.5075479 C2.1739525,13.3423656 2.04498073,13.1546848 1.95221953,12.9543697 L1.95221953,12.9543697 Z"/>
  <path d="M12.5651361,10.4924521 L18.9321465,4.12544179 C19.6856613,3.37192693 20.9073503,3.37192693 21.6608652,4.12544179 C22.41438,4.87895666 22.41438,6.10064563 21.6608652,6.8541605 L16.596999,11.9180266 L21.8248119,17.1458395 C22.5783268,17.8993544 22.5783268,19.1210433 21.8248119,19.8745582 C21.0712971,20.6280731 19.8496081,20.6280731 19.0960932,19.8745582 L12.7290829,13.5075479 C12.5639006,13.3423656 12.4349288,13.1546848 12.3421676,12.9543697 C11.8208959,12.2023421 11.8952187,11.1623695 12.5651361,10.4924521 Z"/>
</svg>
