<svg xmlns="http://www.w3.org/2000/svg" viewBox="0 0 24 24">
  <path d="M17.3742775,10.9690179 C14.4456939,9.22981204 9.61506063,9.06989753 6.81937748,9.91839914 C6.37033667,10.0546628 5.89558369,9.80122976 5.75953702,9.35229744 C5.62349035,8.90303965 5.8767064,8.42861214 6.32596419,8.29213151 C9.53521186,7.31799829 14.8702159,7.50612024 18.2416564,9.50743838 C18.6454568,9.74720165 18.7779233,10.2687139 18.538594,10.6718634 C18.2990477,11.0756638 17.7771015,11.2087812 17.3742775,10.9690179 Z M17.2783722,13.5450085 C17.0728918,13.8783988 16.6369783,13.9829833 16.304022,13.7782624 C13.8624507,12.2775179 10.1393936,11.8426893 7.25084288,12.7195068 C6.87622632,12.832662 6.48067117,12.6215402 6.36686498,12.2475746 C6.25403521,11.8730665 6.46526557,11.4781623 6.83923118,11.3642476 C10.1389597,10.3628834 14.2410814,10.8478344 17.0453353,12.5712007 C17.3782916,12.7762472 17.4830931,13.2123776 17.2783722,13.5450085 Z M16.1666734,16.0189098 C16.0033957,16.2866635 15.6548168,16.3705264 15.3880395,16.2073572 C13.2545803,14.9034139 10.5692317,14.6089716 7.40674325,15.3312991 C7.10199436,15.4011668 6.79822189,15.2102241 6.72867969,14.9054752 C6.65892052,14.6008348 6.84921227,14.2970623 7.1546121,14.2275201 C10.6154485,13.4364098 13.5840649,13.776852 15.9787684,15.2401674 C16.2457627,15.4032281 16.3298426,15.752024 16.1666734,16.0189098 Z M12,2.91470782 C6.9824382,2.91470782 2.91470782,6.98232971 2.91470782,11.9998915 C2.91470782,17.0179958 6.9824382,21.0852922 12,21.0852922 C17.0177788,21.0852922 21.0852922,17.0179958 21.0852922,11.9998915 C21.0852922,6.98232971 17.0177788,2.91470782 12,2.91470782 L12,2.91470782 Z"/>
</svg>
